<svg xmlns="http://www.w3.org/2000/svg" width="1200" height="700" viewBox="0 0 1200 700">
  <defs>
    <linearGradient id="bg" x1="0" y1="0" x2="1" y2="1">
      <stop offset="0%" stop-color="#f8fafc" />
      <stop offset="100%" stop-color="#eef2f7" />
    </linearGradient>
    <linearGradient id="card" x1="0" y1="0" x2="1" y2="1">
      <stop offset="0%" stop-color="#ffffff" />
      <stop offset="100%" stop-color="#f8fafc" />
    </linearGradient>
  </defs>

  <rect width="1200" height="700" fill="url(#bg)" />

  <rect x="60" y="70" width="460" height="560" rx="24" fill="url(#card)" stroke="#cbd5e1" stroke-width="4" />
  <rect x="680" y="70" width="460" height="560" rx="24" fill="url(#card)" stroke="#cbd5e1" stroke-width="4" />

  <text x="290" y="140" text-anchor="middle" font-size="34" font-family="'Times New Roman', serif" fill="#1e3a5f">MultiSelect</text>
  <text x="910" y="140" text-anchor="middle" font-size="34" font-family="'Times New Roman', serif" fill="#1e3a5f">Binary Columns</text>

  <rect x="120" y="190" width="340" height="70" rx="14" fill="#e2e8f0" stroke="#cbd5e1" stroke-width="2" />
  <text x="290" y="235" text-anchor="middle" font-size="26" font-family="'Times New Roman', serif" fill="#0f172a">Python</text>

  <rect x="120" y="280" width="340" height="70" rx="14" fill="#e2e8f0" stroke="#cbd5e1" stroke-width="2" />
  <text x="290" y="325" text-anchor="middle" font-size="26" font-family="'Times New Roman', serif" fill="#0f172a">JavaScript</text>

  <rect x="120" y="370" width="340" height="70" rx="14" fill="#e2e8f0" stroke="#cbd5e1" stroke-width="2" />
  <text x="290" y="415" text-anchor="middle" font-size="26" font-family="'Times New Roman', serif" fill="#0f172a">SQL</text>

  <rect x="120" y="460" width="340" height="70" rx="14" fill="#e2e8f0" stroke="#cbd5e1" stroke-width="2" />
  <text x="290" y="505" text-anchor="middle" font-size="26" font-family="'Times New Roman', serif" fill="#0f172a">Docker</text>

  <path d="M520 350 L680 350" stroke="#94a3b8" stroke-width="10" stroke-linecap="round" />
  <polygon points="680,350 645,330 645,370" fill="#94a3b8" />

  <rect x="740" y="190" width="340" height="70" rx="14" fill="#dbeafe" stroke="#93c5fd" stroke-width="2" />
  <text x="910" y="235" text-anchor="middle" font-size="26" font-family="'Times New Roman', serif" fill="#1e3a5f">Python = 1</text>

  <rect x="740" y="280" width="340" height="70" rx="14" fill="#dbeafe" stroke="#93c5fd" stroke-width="2" />
  <text x="910" y="325" text-anchor="middle" font-size="26" font-family="'Times New Roman', serif" fill="#1e3a5f">JavaScript = 1</text>

  <rect x="740" y="370" width="340" height="70" rx="14" fill="#dbeafe" stroke="#93c5fd" stroke-width="2" />
  <text x="910" y="415" text-anchor="middle" font-size="26" font-family="'Times New Roman', serif" fill="#1e3a5f">SQL = 0</text>

  <rect x="740" y="460" width="340" height="70" rx="14" fill="#dbeafe" stroke="#93c5fd" stroke-width="2" />
  <text x="910" y="505" text-anchor="middle" font-size="26" font-family="'Times New Roman', serif" fill="#1e3a5f">Docker = 1</text>

  <text x="600" y="665" text-anchor="middle" font-size="24" font-family="'Times New Roman', serif" fill="#64748b">
    Cada tecnologia se convierte en una columna binaria (0/1)
  </text>
</svg>
